<svg id="visual" viewBox="0 0 900 600" width="900" height="600" xmlns="http://www.w3.org/2000/svg" xmlns:xlink="http://www.w3.org/1999/xlink" version="1.1"><rect x="0" y="0" width="900" height="600" fill="#001220"></rect><defs><linearGradient id="grad1_0" x1="33.3%" y1="0%" x2="100%" y2="100%"><stop offset="20%" stop-color="#001220" stop-opacity="1"></stop><stop offset="80%" stop-color="#001220" stop-opacity="1"></stop></linearGradient></defs><defs><linearGradient id="grad2_0" x1="0%" y1="0%" x2="66.7%" y2="100%"><stop offset="20%" stop-color="#001220" stop-opacity="1"></stop><stop offset="80%" stop-color="#001220" stop-opacity="1"></stop></linearGradient></defs><g transform="translate(900, 0)"><path d="M0 272C-31.9 281.8 -63.7 291.6 -91.9 282.9C-120.1 274.2 -144.7 247.1 -160.5 220.9C-176.3 194.6 -183.4 169.1 -205.5 149.3C-227.6 129.5 -264.8 115.4 -281.5 91.5C-298.3 67.5 -294.6 33.8 -291 0L0 0Z" fill="#FBAE3C"></path></g><g transform="translate(0, 600)"><path d="M0 -279C29.6 -277.5 59.2 -275.9 86.5 -266.3C113.9 -256.7 139 -239 159.9 -220.1C180.7 -201.2 197.4 -181.1 220.9 -160.5C244.4 -139.9 274.7 -118.7 282.9 -91.9C291.1 -65.1 277 -32.5 263 0L0 0Z" fill="#FBAE3C"></path></g></svg>