<svg xmlns="http://www.w3.org/2000/svg" version="1.1" xmlns:xlink="http://www.w3.org/1999/xlink" xmlns:svgjs="http://svgjs.dev/svgjs" viewBox="0 0 800 800"><defs><filter id="uuunion-blur" x="-100%" y="-100%" width="400%" height="400%" color-interpolation-filters="sRGB">
        <feGaussianBlur in="SourceGraphic" stdDeviation="2 0.5" result="blur"></feGaussianBlur>
        <feDropShadow stdDeviation="19.692307692307693" in="blur" dx="16" dy="16" flood-color="hsl(205, 69%, 40%)" flood-opacity="1" x="0%" y="0%" width="100%" height="100%"></feDropShadow>
      </filter><filter id="uuunion-blur2" x="-100%" y="-100%" width="400%" height="400%" color-interpolation-filters="sRGB">
        <feGaussianBlur in="SourceGraphic" stdDeviation="2 0.5" result="blur"></feGaussianBlur>
        <feDropShadow stdDeviation="19.692307692307693" in="blur" dx="-16" dy="-16" flood-color="hsl(205, 69%, 40%)" flood-opacity="1" x="0%" y="0%" width="100%" height="100%"></feDropShadow>
      </filter><linearGradient gradientTransform="rotate(0, 0.5, 0.5)" x1="50%" y1="0%" x2="50%" y2="100%" id="uuunion-grad"><stop stop-color="hsl(205, 69%, 80%)" offset="10%"></stop><stop stop-color="hsl(205, 69%, 40%)" offset="90%"></stop></linearGradient><linearGradient gradientTransform="rotate(360, 0.5, 0.5)" x1="50%" y1="0%" x2="50%" y2="100%" id="uuunion-grad2"><stop stop-color="hsl(205, 69%, 80%)" offset="25%"></stop><stop stop-color="hsl(205, 69%, 40%)" offset="100%"></stop></linearGradient><linearGradient gradientTransform="rotate(333, 0.5, 0.5)" x1="50%" y1="0%" x2="50%" y2="100%" id="uuunion-grad3"><stop stop-color="hsl(205, 69%, 80%)" offset="0%"></stop><stop stop-color="hsl(205, 69%, 40%)" offset="75%"></stop></linearGradient></defs><path d="M-75.12 -80.14Q-61.22 -78.71 -47.31 -77.4 -33.4 -76.32 -19.49 -75.57 -5.59 -75.22 8.31 -75.29 22.22 -75.78 36.13 -76.65 50.03 -77.82 63.94 -79.18 77.85 -80.61 91.76 -81.99 105.67 -83.19 119.57 -84.11 133.48 -84.66 147.39 -84.79 161.3 -84.49 175.2 -83.79 189.11 -82.75 203.02 -81.47 216.93 -80.05 230.83 -78.63 244.74 -77.33 258.65 -76.27 272.56 -75.54 286.46 -75.21 300.37 -75.31 314.28 -75.82 328.19 -76.71 342.1 -77.89 356 -79.26 369.91 -80.69 383.82 -82.07 397.73 -83.25 411.63 -84.15 425.54 -84.67 439.45 -84.78 453.36 -84.46 467.26 -83.74 481.17 -82.69 495.08 -81.39 508.99 -79.97 522.9 -78.56 536.8 -77.27 550.71 -76.22 564.62 -75.51 578.53 -75.21 592.43 -75.33 606.34 -75.86 620.25 -76.77 634.16 -77.96 648.06 -79.34 661.97 -80.77 675.88 -82.14 689.79 -83.31 703.69 -84.19 717.6 -84.69 731.51 -84.77 745.42 -84.43 759.33 -83.69 773.23 -82.62 787.14 -81.32 801.05 -79.89 814.96 -78.48 821.55 -63.17 831.45 -47.86 844.08 -32.56 858.74 -17.25 874.6 -1.94 890.76 13.36 906.32 28.67 920.39 43.97 932.18 59.28 941.03 74.59 946.43 89.9 948.09 105.2 945.9 120.51 940 135.82 930.71 151.13 918.55 166.44 904.23 181.74 888.53 197.05 872.36 212.36 856.61 227.67 842.19 242.98 829.9 258.28 820.43 273.59 814.33 288.9 811.93 304.21 813.37 319.51 818.57 334.82 827.23 350.13 838.88 365.44 852.84 380.75 868.33 396.05 884.49 411.36 900.39 426.67 915.14 441.98 927.9 457.29 937.97 472.59 944.76 487.9 947.9 503.21 947.2 518.52 942.72 533.82 934.7 549.13 923.59 564.44 910.02 579.75 894.75 595.06 878.66 610.36 862.64 625.67 847.59 640.98 834.38 656.29 823.74 671.6 816.28 686.9 812.41 702.21 812.35 717.52 816.11 732.83 823.47 748.13 834.03 763.44 847.17 778.75 862.17 794.06 878.18 809.37 894.28 824.67 909.59 839.98 923.22 855.29 934.41 870.6 936.77 883.66 914.87 861.5 898.74 843.24 882.62 828.25 866.49 817.89 850.36 813.08 834.23 814.24 818.11 821.28 801.98 833.56 785.85 849.99 769.72 869.1 753.6 889.18 737.47 908.45 721.34 925.17 705.21 937.85 689.09 945.37 672.96 947.05 656.83 942.74 640.7 932.82 624.58 918.18 608.45 900.14 592.32 880.29 576.19 860.42 560.07 842.3 543.94 827.54 527.81 817.47 511.68 812.99 495.56 814.49 479.43 821.84 463.3 834.39 447.17 851.01 431.05 870.22 414.92 890.3 398.79 909.47 382.66 926 366.54 938.42 350.41 945.62 334.28 946.96 318.15 942.32 302.03 932.11 285.9 917.25 269.77 899.06 253.64 879.16 237.52 859.34 221.39 841.37 205.26 826.84 189.13 817.07 173.01 812.91 156.88 814.75 140.75 822.41 124.62 835.22 108.5 852.03 92.37 871.34 76.24 891.42 60.11 910.48 43.99 926.81 27.86 938.97 11.73 945.86 -4.39 946.86 -20.51 941.89 -36.64 931.39 -52.77 916.3 -68.89 897.97 -85.02 878.03 -84.68 863.06 -84.07 848.09 -83.23 833.12 -82.21 818.15 -81.07 803.18 -79.86 788.2 -78.66 773.23 -77.54 758.26 -76.55 743.29 -75.76 728.32 -75.21 713.35 -74.93 698.37 -74.93 683.4 -75.22 668.43 -75.78 653.46 -76.58 638.49 -77.57 623.52 -78.69 608.55 -79.89 593.57 -81.1 578.6 -82.24 563.63 -83.26 548.66 -84.09 533.69 -84.69 518.72 -85.03 503.74 -85.08 488.77 -84.85 473.8 -84.34 458.83 -83.58 443.86 -82.63 428.89 -81.52 413.92 -80.33 398.94 -79.12 383.97 -77.96 369 -76.92 354.03 -76.04 339.06 -75.39 324.09 -75.01 309.11 -74.9 294.14 -75.08 279.17 -75.53 264.2 -76.24 249.23 -77.16 234.26 -78.24 219.29 -79.42 204.31 -80.63 189.34 -81.81 174.37 -82.88 159.4 -83.79 144.43 -84.49 129.46 -84.93 114.48 -85.09 99.51 -84.97 84.54 -84.57 69.57 -83.9 54.6 -83.02 39.63 -81.97 24.66 -80.8 9.68 -79.59 -5.28 -78.4 -20.25 -77.31 -35.22 -76.36 -50.19 -75.62 -65.16 -75.12 -80.14" fill="url(#uuunion-grad)"></path><path d="M-75.12 -80.14Q-75.62 -65.16 -76.36 -50.19 -77.31 -35.22 -78.4 -20.25 -79.59 -5.28 -80.8 9.68 -81.97 24.66 -83.02 39.63 -83.9 54.6 -84.57 69.57 -84.97 84.54 -85.09 99.51 -84.93 114.48 -84.49 129.46 -83.79 144.43 -82.88 159.4 -81.81 174.37 -80.63 189.34 -79.42 204.31 -78.24 219.29 -77.16 234.26 -76.24 249.23 -75.53 264.2 -75.08 279.17 -74.9 294.14 -75.01 309.11 -75.39 324.09 -76.04 339.06 -76.92 354.03 -77.96 369 -79.12 383.97 -80.33 398.94 -70.28 406.11 -60.23 413.04 -50.18 419.45 -40.13 425.08 -30.08 429.71 -20.03 433.15 -1.19 435.8 2.06 435.97 14.38 427.86 26.52 417.7 38.47 405.78 50.25 392.48 61.87 378.27 73.34 363.66 84.68 349.18 95.91 335.34 107.06 322.58 118.15 311.28 129.22 301.72 140.28 294.06 151.37 288.33 162.53 284.45 173.77 282.24 185.14 281.39 196.66 281.53 208.36 282.25 220.26 283.1 232.4 283.63 244.78 283.44 257.44 282.16 270.37 279.54 283.6 275.37 297.13 269.59 310.97 262.2 325.11 253.33 339.54 243.19 354.26 232.06 369.24 220.28 384.48 208.2 399.95 196.2 415.61 184.63 431.44 173.81 447.4 164 463.45 155.37 479.56 148.04 495.67 142.02 511.75 137.25 527.75 133.59 543.62 130.83 559.31 128.72 574.78 126.97 589.98 125.3 604.87 123.41 619.41 121.03 633.55 117.95 647.27 114.01 660.54 109.09 673.31 103.16 685.59 96.25 697.34 88.45 708.56 79.9 719.25 70.79 729.4 61.33 739.02 51.74 748.13 42.24 756.75 33.04 764.9 24.29 772.61 16.14 779.93 8.67 786.9 1.91 793.57 -4.14 800 -9.57 782.99 -25.98 767.3 -42.39 754.1 -58.8 744.43 -75.21 739.02 -91.62 738.28 -108.04 742.27 -124.45 750.69 -140.86 736.69 -140.89 722.69 -140.85 708.68 -140.74 694.68 -140.55 680.68 -140.32 666.68 -140.06 652.67 -139.8 638.67 -139.55 624.67 -139.34 610.67 -139.19 596.66 -139.11 582.66 -139.1 568.66 -139.18 554.66 -139.33 540.66 -139.54 526.65 -139.79 512.65 -140.05 498.65 -140.31 484.65 -140.55 470.64 -140.73 456.64 -140.85 442.64 -140.89 428.64 -140.86 414.63 -140.75 400.63 -140.57 386.63 -140.34 372.63 -140.08 358.62 -139.81 344.62 -139.56 330.62 -139.35 316.62 -139.19 302.61 -139.11 288.61 -139.1 274.61 -139.17 260.61 -139.32 246.6 -139.52 232.6 -139.77 218.6 -140.03 204.6 -140.29 190.6 -140.53 176.59 -140.72 162.59 -140.84 148.59 -140.89 134.59 -140.86 120.58 -140.76 106.58 -140.59 92.58 -140.36 78.58 -140.1 64.57 -139.83 50.57 -139.58 36.57 -139.37 22.57 -139.2 8.56 -139.11 -5.43 -139.1 -19.43 -139.16 -33.43 -139.3 -47.44 -139.5 -61.44 -139.75 -75.44 -140.01 -89.44 -140.28 -103.45 -140.51 -117.45 -140.71 -125.88 -128.38 -109.2 -111.98 -100.54 -104.34 -92 -96.48 -83.54 -88.41 -75.12 -80.14" fill="url(#uuunion-grad2)" filter="url(#uuunion-blur)"></path><path d="M804.09 365.52Q814.14 368.27 824.19 372.28 834.24 377.39 844.29 383.41 854.34 390.09 864.39 397.16 874.44 404.35 884.49 411.36 900.39 426.67 915.14 441.98 927.9 457.29 937.97 472.59 944.76 487.9 947.9 503.21 947.2 518.52 942.72 533.82 934.7 549.13 923.59 564.44 910.02 579.75 894.75 595.06 878.66 610.36 862.64 625.67 847.59 640.98 834.38 656.29 823.74 671.6 816.28 686.9 812.41 702.21 812.35 717.52 816.11 732.83 823.47 748.13 834.03 763.44 847.17 778.75 862.17 794.06 878.18 809.37 894.28 824.67 909.59 839.98 923.22 855.29 934.41 870.6 937.43 884.49 917.53 864.72 902.72 847.5 887.92 832.73 873.12 821.53 858.32 814.72 843.52 812.84 828.72 816.01 813.92 824 799.12 836.21 784.32 851.71 769.52 869.35 754.72 887.79 739.92 905.64 725.12 921.56 710.32 934.35 695.52 943.04 680.72 946.99 665.92 945.89 651.12 939.83 636.32 929.26 621.52 914.98 606.72 898.06 591.92 879.79 577.12 861.53 562.32 844.66 547.52 830.45 532.72 819.97 517.92 814.02 503.12 813.03 488.32 817.09 473.52 825.89 458.72 838.76 443.92 854.73 429.11 872.61 414.31 891.05 399.51 908.65 384.71 924.1 369.91 936.22 355.11 944.11 340.31 947.17 325.51 945.17 310.71 938.26 295.91 926.96 281.11 912.13 266.31 894.87 251.51 876.5 236.71 858.39 221.91 841.9 207.11 828.29 192.31 818.57 177.51 813.47 162.71 813.39 147.91 818.32 133.11 827.9 118.31 841.4 103.51 857.81 88.71 875.89 73.91 894.28 59.11 911.59 44.31 926.53 29.51 937.95 7.29 940.77 -0.18 925.88 -0.26 915.23 -0.35 904.58 -0.47 893.93 -0.59 883.28 -0.55 867.31 0.13 862 12.56 853.42 24.8 841.19 36.86 825.72 48.74 807.62 60.44 787.65 71.99 766.71 83.4 745.7 94.7 725.55 105.89 707.09 117.01 691.08 128.09 678.07 139.15 668.44 150.23 662.36 161.35 659.76 172.55 660.37 183.85 663.72 195.29 669.17 206.9 675.97 218.7 683.29 230.72 690.28 242.98 696.13 255.51 700.1 268.31 701.59 281.4 700.16 294.8 695.56 308.5 687.73 322.51 676.82 336.82 663.16 351.43 647.27 366.32 629.76 381.48 611.37 396.88 592.87 412.5 575 428.31 558.49 444.27 543.94 460.36 531.83 476.52 522.49 492.71 516.06 508.9 512.51 525.04 511.61 541.07 512.98 556.96 516.13 572.65 520.42 588.09 525.19 603.25 529.75 618.08 533.43 632.54 535.63 646.59 535.86 660.19 533.75 673.32 529.09 685.96 521.83 698.08 512.09 709.67 500.12 720.72 486.33 731.22 471.22 741.19 455.36 750.63 439.37 759.56 423.85 768 409.37 775.98 396.41 783.53 385.36 790.7 376.48 800.81 367.7 804.09 365.52" fill="url(#uuunion-grad3)" filter="url(#uuunion-blur2)"></path></svg>