<?xml version="1.0" standalone="no"?>
<svg xmlns:xlink="http://www.w3.org/1999/xlink" id="wave" style="transform:rotate(0deg); transition: 0.3s" viewBox="0 0 1440 100" version="1.1" xmlns="http://www.w3.org/2000/svg"><defs><linearGradient id="sw-gradient-0" x1="0" x2="0" y1="1" y2="0"><stop stop-color="rgba(243, 106, 62, 1)" offset="0%"/><stop stop-color="rgba(255, 179, 11, 1)" offset="100%"/></linearGradient></defs><path style="transform:translate(0, 0px); opacity:1" fill="url(#sw-gradient-0)" d="M0,0L80,6.7C160,13,320,27,480,33.3C640,40,800,40,960,35C1120,30,1280,20,1440,15C1600,10,1760,10,1920,20C2080,30,2240,50,2400,55C2560,60,2720,50,2880,45C3040,40,3200,40,3360,35C3520,30,3680,20,3840,28.3C4000,37,4160,63,4320,76.7C4480,90,4640,90,4800,76.7C4960,63,5120,37,5280,26.7C5440,17,5600,23,5760,28.3C5920,33,6080,37,6240,35C6400,33,6560,27,6720,26.7C6880,27,7040,33,7200,45C7360,57,7520,73,7680,66.7C7840,60,8000,30,8160,28.3C8320,27,8480,53,8640,68.3C8800,83,8960,87,9120,75C9280,63,9440,37,9600,30C9760,23,9920,37,10080,35C10240,33,10400,17,10560,10C10720,3,10880,7,11040,10C11200,13,11360,17,11440,18.3L11520,20L11520,100L11440,100C11360,100,11200,100,11040,100C10880,100,10720,100,10560,100C10400,100,10240,100,10080,100C9920,100,9760,100,9600,100C9440,100,9280,100,9120,100C8960,100,8800,100,8640,100C8480,100,8320,100,8160,100C8000,100,7840,100,7680,100C7520,100,7360,100,7200,100C7040,100,6880,100,6720,100C6560,100,6400,100,6240,100C6080,100,5920,100,5760,100C5600,100,5440,100,5280,100C5120,100,4960,100,4800,100C4640,100,4480,100,4320,100C4160,100,4000,100,3840,100C3680,100,3520,100,3360,100C3200,100,3040,100,2880,100C2720,100,2560,100,2400,100C2240,100,2080,100,1920,100C1760,100,1600,100,1440,100C1280,100,1120,100,960,100C800,100,640,100,480,100C320,100,160,100,80,100L0,100Z"/></svg>